<svg xmlns="http://www.w3.org/2000/svg" width="17" height="17" viewBox="0 0 17 17" fill="none">
  <path d="M12.8115 8.61474H3.37109M3.37109 8.61474L8.0913 13.335M3.37109 8.61474L8.0913 3.89453" stroke="white" stroke-width="0.809179" stroke-linecap="round" stroke-linejoin="round"/>
</svg>
<svg xmlns="http://www.w3.org/2000/svg" width="17" height="13" viewBox="0 0 17 13" fill="none">
  <path d="M16.1616 6.88392C16.4664 6.57912 16.4664 6.08494 16.1616 5.78014L11.1947 0.813149C10.8899 0.508349 10.3957 0.508349 10.0909 0.813149C9.78607 1.11795 9.78607 1.61213 10.0909 1.91693L14.506 6.33203L10.0909 10.7471C9.78607 11.0519 9.78607 11.5461 10.0909 11.8509C10.3957 12.1557 10.8899 12.1557 11.1947 11.8509L16.1616 6.88392ZM0 7.11252H15.6098V5.55154H0V7.11252Z" fill="white"/>
</svg>