<svg width="113" height="94" viewBox="0 0 113 94" fill="none" xmlns="http://www.w3.org/2000/svg">
<path opacity="0.2" fill-rule="evenodd" clip-rule="evenodd" d="M40.791 0.963288C16.8612 16.3318 3.56788 34.2172 0.907948 54.6291C-3.2329 86.3989 25.1778 101.949 39.5739 87.9784C53.9699 74.005 45.3419 56.2721 34.9182 51.4226C24.4946 46.5762 18.1197 48.2637 19.2319 41.7839C20.3442 35.3072 35.1725 17.3455 48.202 8.98122C48.6637 8.5886 48.9583 8.03462 49.0256 7.43228C49.0929 6.82994 48.9279 6.2246 48.5643 5.73973L45.3419 1.54803C43.9436 -0.269751 42.6025 -0.199838 40.791 0.960109V0.963288ZM103.797 0.963288C79.867 16.3318 66.5705 34.2204 63.9137 54.6291C59.7729 86.3989 88.1836 101.949 102.58 87.9784C116.976 74.005 108.348 56.2721 97.9208 51.4226C87.4972 46.5762 81.1222 48.2637 82.2345 41.7839C83.3468 35.3072 98.1782 17.3455 111.208 8.98122C111.669 8.58816 111.963 8.03396 112.03 7.43164C112.096 6.82932 111.931 6.22422 111.567 5.73973L108.344 1.54803C106.946 -0.269751 105.605 -0.199838 103.797 0.960109V0.963288Z" fill="white"/>
</svg>