<svg width="120" height="19" viewBox="0 0 120 19" fill="none" xmlns="http://www.w3.org/2000/svg">
<g clip-path="url(#clip0_1_7330)">
<g opacity="0.6">
<path d="M6.33764 2.66427C0.646971 12.7514 -0.000976562 12.8625 -0.000976562 14.509C-5.40895e-05 14.9848 0.0960045 15.4559 0.281702 15.8951C0.467398 16.3344 0.739088 16.7332 1.08122 17.0687C1.42335 17.4042 1.82921 17.6699 2.27556 17.8506C2.72192 18.0312 3.20001 18.1232 3.68247 18.1214C6.1827 18.1214 6.43624 16.0373 9.74641 16.0373C10.2816 16.0307 10.8151 16.0985 11.3311 16.2388C11.1096 15.6954 10.9949 15.1154 10.993 14.5298V14.4534C10.578 14.3923 10.159 14.3621 9.73937 14.3631C5.95028 14.3631 5.43615 16.4472 3.68247 16.4472C3.4235 16.4481 3.16688 16.3987 2.92727 16.3018C2.68766 16.2049 2.46975 16.0623 2.28597 15.8824C2.1022 15.7024 1.95617 15.4885 1.85621 15.2528C1.75625 15.0172 1.70433 14.7644 1.70341 14.509C1.70341 13.6128 1.76679 14.0713 7.78144 3.49792C7.97889 3.15562 8.26472 2.871 8.60986 2.67301C8.95501 2.47502 9.34715 2.37073 9.74641 2.37073C10.1457 2.37073 10.5378 2.47502 10.883 2.67301C11.2281 2.871 11.5139 3.15562 11.7114 3.49792C12.6833 5.20689 13.4932 6.61713 14.1834 7.79813C14.4792 7.29794 14.8032 6.73523 15.1624 6.11695C14.5849 5.11657 13.9299 3.97726 13.1974 2.64343C12.8442 2.05526 12.3414 1.56829 11.7388 1.23071C11.1361 0.893134 10.4545 0.716663 9.7615 0.718769C9.06846 0.720874 8.38799 0.901483 7.78746 1.24272C7.18693 1.58395 6.68717 2.07397 6.33764 2.66427Z" fill="#306CFE"/>
</g>
<path d="M25.3537 2.66411C25.0047 2.06679 24.5023 1.57069 23.8971 1.22576C23.2919 0.880824 22.6052 0.699219 21.9062 0.699219C21.2073 0.699219 20.5206 0.880824 19.9154 1.22576C19.3102 1.57069 18.8078 2.06679 18.4587 2.66411C12.8244 12.7512 12.1201 12.8623 12.1201 14.4741C12.121 14.95 12.2171 15.421 12.4028 15.8602C12.5885 16.2995 12.8602 16.6983 13.2023 17.0338C13.5444 17.3693 13.9503 17.635 14.3967 17.8157C14.843 17.9963 15.3211 18.0883 15.8036 18.0865C18.3038 18.0865 18.5573 16.0024 21.8675 16.0024C25.1777 16.0024 25.4383 18.0865 27.9385 18.0865C28.9123 18.0884 29.8471 17.709 30.5377 17.0318C31.2283 16.3545 31.6182 15.4346 31.6219 14.4741C31.629 12.8623 30.9881 12.7512 25.3537 2.66411ZM27.9737 16.447C26.3116 16.447 25.6284 14.3629 21.8957 14.3629C18.1629 14.3629 17.5925 16.447 15.8388 16.447C15.5798 16.4479 15.3232 16.3985 15.0836 16.3016C14.844 16.2047 14.6261 16.0622 14.4423 15.8822C14.2585 15.7022 14.1125 15.4883 14.0125 15.2527C13.9126 15.017 13.8606 14.7642 13.8597 14.5088C13.8597 13.6126 13.9231 14.0711 19.9377 3.49775C20.1352 3.15545 20.421 2.87084 20.7662 2.67285C21.1113 2.47486 21.5035 2.37056 21.9027 2.37056C22.302 2.37056 22.6941 2.47486 23.0393 2.67285C23.3844 2.87084 23.6702 3.15545 23.8677 3.49775C29.8823 14.0711 29.9528 13.6126 29.9528 14.5088C29.9509 14.7663 29.8975 15.021 29.7954 15.258C29.6934 15.4951 29.5448 15.7099 29.3582 15.8901C29.1716 16.0702 28.9507 16.2122 28.7083 16.3078C28.4658 16.4034 28.2066 16.4507 27.9455 16.447H27.9737Z" fill="#306CFE"/>
</g>
<path d="M56.9764 7.54862C56.874 7.29646 57.0028 7.009 57.2648 6.93545C57.6938 6.81501 58.1753 6.71659 58.7092 6.64017C59.4506 6.52347 60.2256 6.46512 61.0343 6.46512C61.7352 6.46512 62.3215 6.53408 62.7933 6.672C63.265 6.79932 63.6357 6.98498 63.9053 7.229C64.1883 7.47302 64.3838 7.76478 64.4916 8.10429C64.6129 8.44379 64.6736 8.82573 64.6736 9.25011C64.6736 9.71693 64.6534 10.1891 64.6129 10.6665C64.5725 11.1333 64.5455 11.5948 64.532 12.051C64.532 12.5072 64.5523 12.9528 64.5927 13.3878C64.6097 13.5663 64.6375 13.7411 64.6759 13.9121C64.751 14.2456 64.5172 14.5973 64.1753 14.5973H63.0801C62.8829 14.5973 62.706 14.476 62.6348 14.2921L62.3498 13.555C62.3368 13.5214 62.3045 13.4992 62.2685 13.4992C62.2423 13.4992 62.2176 13.511 62.2007 13.5309C61.9331 13.8466 61.5645 14.1225 61.095 14.3586C60.6232 14.592 60.0099 14.7087 59.2551 14.7087C58.7834 14.7087 58.3588 14.6557 57.9814 14.5496C57.604 14.4329 57.2805 14.2737 57.0109 14.0721C56.7413 13.8599 56.5324 13.6159 56.3841 13.3401C56.2359 13.0536 56.1617 12.7353 56.1617 12.3852C56.1617 11.8972 56.2965 11.4887 56.5661 11.1598C56.8492 10.8203 57.2468 10.5498 57.759 10.3482C58.2846 10.136 58.9047 9.99278 59.619 9.91851C60.3469 9.83364 61.1556 9.80711 62.0452 9.83894C62.1396 9.24481 62.0857 8.82043 61.8835 8.5658C61.6813 8.30056 61.2298 8.16794 60.5289 8.16794C60.0032 8.16794 59.4438 8.21038 58.8508 8.29526C58.4768 8.35002 58.1449 8.41583 57.8551 8.49267C57.6066 8.55858 57.3386 8.44068 57.2419 8.20245L56.9764 7.54862ZM60.1245 13.0059C60.6502 13.0059 61.068 12.9157 61.378 12.7353C61.688 12.5444 61.9172 12.3428 62.0654 12.1306V11.0962C61.6476 11.0643 61.2432 11.059 60.8523 11.0803C60.4749 11.1015 60.138 11.1492 59.8414 11.2235C59.5449 11.2977 59.309 11.4038 59.1338 11.5418C58.9586 11.6797 58.871 11.8547 58.871 12.0669C58.871 12.364 58.9788 12.5974 59.1945 12.7672C59.4236 12.9263 59.7336 13.0059 60.1245 13.0059Z" fill="white"/>
<path d="M72.5512 8.04764C72.502 8.3253 72.2245 8.49677 71.9467 8.44829C71.7269 8.40992 71.5204 8.39074 71.3272 8.39074C70.8555 8.39074 70.4579 8.49153 70.1344 8.69311C69.8502 8.86814 69.651 9.09219 69.5367 9.36525C69.516 9.41485 69.5076 9.46855 69.5076 9.52232V14.104C69.5076 14.3676 69.2938 14.5814 69.0302 14.5814H67.3567C67.093 14.5814 66.8792 14.3676 66.8792 14.104V7.10169C66.8792 6.83801 67.093 6.62426 67.3567 6.62426H68.5622C68.7749 6.62426 68.9619 6.76493 69.0209 6.96925L69.2245 7.6746C69.4537 7.28205 69.8446 6.97968 70.2355 6.76749C70.6263 6.5553 71.0846 6.4492 71.6103 6.4492C71.8439 6.4492 72.0985 6.47513 72.374 6.52699C72.6184 6.57298 72.7698 6.81278 72.7264 7.0576L72.5512 8.04764Z" fill="white"/>
<path d="M77.4466 11.4784C77.3565 11.358 77.2149 11.2871 77.0645 11.2871H76.5958V14.104C76.5958 14.3676 76.382 14.5814 76.1184 14.5814H74.4449C74.1812 14.5814 73.9674 14.3676 73.9674 14.104V4.69216C73.9674 4.48874 74.0963 4.30766 74.2885 4.24105L75.962 3.66106C76.2722 3.55356 76.5958 3.7839 76.5958 4.11216V10.014C76.9912 9.86874 77.3347 9.60937 77.5826 9.26875L79.3991 6.77276C79.467 6.67946 79.5755 6.62426 79.6909 6.62426H81.4032C81.8038 6.62426 82.0263 7.08799 81.7756 7.40048L79.4868 10.2527L80.0531 10.8734L82.2228 13.8209C82.4548 14.1362 82.2297 14.5814 81.8383 14.5814H80.009C79.8586 14.5814 79.717 14.5105 79.6268 14.3901L77.4466 11.4784Z" fill="white"/>
<path d="M91.4886 13.4917C91.6321 13.715 91.5659 14.0136 91.3252 14.1255C90.9838 14.2844 90.5725 14.4257 90.0912 14.5496C89.4038 14.7193 88.6692 14.8042 87.8875 14.8042C86.2565 14.8042 85.0637 14.4329 84.3088 13.6902C83.554 12.9369 83.1766 11.9078 83.1766 10.6028C83.1766 9.20237 83.6012 8.15203 84.4504 7.4518C85.2995 6.75157 86.4924 6.40146 88.029 6.40146C88.5412 6.40146 89.0399 6.45451 89.5251 6.5606C90.0104 6.6667 90.4417 6.84175 90.8191 7.08577C91.1965 7.32979 91.4998 7.65869 91.7289 8.07246C91.958 8.48623 92.0726 9.00079 92.0726 9.61614C92.0726 9.83894 92.0524 10.0777 92.012 10.3323C91.962 10.8044 91.5364 11.128 91.0616 11.128H85.805C85.8454 11.7964 86.0611 12.3003 86.452 12.6399C86.8563 12.9794 87.5033 13.1491 88.3929 13.1491C88.9455 13.1491 89.4375 13.0855 89.8688 12.9581C90.095 12.888 90.2933 12.8179 90.4637 12.7478C90.7025 12.6495 90.9908 12.7171 91.1304 12.9344L91.4886 13.4917ZM87.9886 8.05654C87.3011 8.05654 86.7889 8.22099 86.452 8.54989C86.1285 8.86817 85.933 9.29786 85.8656 9.83894H89.1916C89.438 9.83894 89.6512 9.65049 89.6331 9.4048C89.6062 9.03843 89.4893 8.74285 89.2825 8.51806C89.0129 8.21038 88.5816 8.05654 87.9886 8.05654Z" fill="white"/>
<path d="M92.8775 7.10169C92.8775 6.83801 93.0913 6.62426 93.355 6.62426H94.2726V5.47581C94.2726 5.26868 94.4062 5.08517 94.6033 5.0215L96.2768 4.48087C96.5851 4.38127 96.901 4.61117 96.901 4.93518V6.62426H98.8901C99.1538 6.62426 99.3676 6.83801 99.3676 7.10169V7.8974C99.3676 8.16108 99.1538 8.37483 98.8901 8.37483H96.901V11.4304C96.901 11.9821 96.9683 12.3799 97.1031 12.6239C97.2514 12.8573 97.521 12.9741 97.9119 12.9741C98.1814 12.9741 98.4106 12.9528 98.5993 12.9104C98.6596 12.8977 98.7217 12.8832 98.7856 12.8667C99.0505 12.7986 99.3309 12.9398 99.4076 13.2023L99.6076 13.887C99.6776 14.1262 99.5519 14.3803 99.3132 14.4521C99.0528 14.5303 98.7677 14.6 98.4578 14.661C97.9725 14.7564 97.4805 14.8042 96.9818 14.8042C96.0518 14.8042 95.3644 14.6185 94.9196 14.2472C94.4883 13.8653 94.2726 13.2446 94.2726 12.3852V8.37483H93.355C93.0913 8.37483 92.8775 8.16108 92.8775 7.8974V7.10169Z" fill="white"/>
<path d="M108.706 13.4917C108.849 13.715 108.783 14.0136 108.542 14.1255C108.201 14.2844 107.789 14.4257 107.308 14.5496C106.621 14.7193 105.886 14.8042 105.104 14.8042C103.474 14.8042 102.281 14.4329 101.526 13.6902C100.771 12.9369 100.394 11.9078 100.394 10.6028C100.394 9.20237 100.818 8.15203 101.667 7.4518C102.517 6.75157 103.709 6.40146 105.246 6.40146C105.758 6.40146 106.257 6.45451 106.742 6.5606C107.227 6.6667 107.659 6.84175 108.036 7.08577C108.413 7.32979 108.717 7.65869 108.946 8.07246C109.175 8.48623 109.29 9.00079 109.29 9.61614C109.29 9.83894 109.269 10.0777 109.229 10.3323C109.179 10.8044 108.753 11.128 108.279 11.128H103.022C103.062 11.7964 103.278 12.3003 103.669 12.6399C104.073 12.9794 104.72 13.1491 105.61 13.1491C106.163 13.1491 106.655 13.0855 107.086 12.9581C107.312 12.888 107.51 12.8179 107.681 12.7478C107.919 12.6495 108.208 12.7171 108.347 12.9344L108.706 13.4917ZM105.206 8.05654C104.518 8.05654 104.006 8.22099 103.669 8.54989C103.345 8.86817 103.15 9.29786 103.083 9.83894H106.409C106.655 9.83894 106.868 9.65049 106.85 9.4048C106.823 9.03843 106.706 8.74285 106.5 8.51806C106.23 8.21038 105.799 8.05654 105.206 8.05654Z" fill="white"/>
<path d="M119.599 16.6272C119.599 16.8385 119.461 17.0247 119.258 17.0849L117.584 17.582C117.278 17.6729 116.971 17.4436 116.971 17.1244V13.8971C116.742 14.1729 116.351 14.3957 115.96 14.5655C115.569 14.7246 115.064 14.8042 114.444 14.8042C113.19 14.8042 112.227 14.47 111.553 13.8016C110.892 13.1332 110.562 12.12 110.562 10.762C110.562 9.34029 111.013 8.26343 111.917 7.53137C112.833 6.79932 114.141 6.43329 115.839 6.43329C116.203 6.43329 116.567 6.4492 116.931 6.48103C117.295 6.50225 117.638 6.53938 117.962 6.59243C118.299 6.63487 118.609 6.68792 118.892 6.75157C119.02 6.77567 119.139 6.79978 119.248 6.82388C119.457 6.87001 119.599 7.05852 119.599 7.27244V16.6272ZM115.151 13.0536C115.664 13.0536 116.055 12.9634 116.324 12.7831C116.584 12.6174 116.787 12.3757 116.933 12.0579C116.959 12.0014 116.971 11.9394 116.971 11.8772V8.39074C116.769 8.30587 116.54 8.25282 116.284 8.2316C116.028 8.19977 115.738 8.18386 115.414 8.18386C114.7 8.18386 114.161 8.39605 113.797 8.82043C113.446 9.24481 113.271 9.86547 113.271 10.6824C113.271 11.4569 113.433 12.0457 113.756 12.4489C114.08 12.852 114.545 13.0536 115.151 13.0536Z" fill="white"/>
<path d="M51.7569 7.37322L48.1608 12.3313C48.0709 12.4552 47.9272 12.5285 47.7743 12.5285H47.3674C47.2168 12.5285 47.0751 12.4574 46.985 12.3368L43.3726 7.50336L43.3679 14.1043C43.3678 14.3678 43.1541 14.5814 42.8905 14.5814H41.2167C40.953 14.5814 40.7393 14.3676 40.7393 14.104V3.91884C40.7393 3.65516 40.953 3.44141 41.2167 3.44141H43.0299C43.179 3.44141 43.3195 3.51106 43.4098 3.62972L47.6905 9.25499C47.7056 9.2749 47.7292 9.28658 47.7542 9.28658C47.7801 9.28658 47.8043 9.27412 47.8194 9.25311L51.8377 3.64089C51.9274 3.51568 52.0719 3.44141 52.2259 3.44141H54.0102C54.2738 3.44141 54.4876 3.65516 54.4876 3.91883V14.104C54.4876 14.3676 54.2738 14.5814 54.0102 14.5814H52.1977C51.933 14.5814 51.7189 14.3661 51.7203 14.1014L51.7569 7.37322Z" fill="white"/>
<defs>
<clipPath id="clip0_1_7330">
<rect width="31.6297" height="17.4231" fill="white" transform="translate(0 0.699219)"/>
</clipPath>
</defs>
</svg>
