<svg width="15" height="14" viewBox="0 0 15 14" fill="none" xmlns="http://www.w3.org/2000/svg">
<g id="akar-icons:instagram-fill" clip-path="url(#clip0_1224_8831)">
<g id="Group">
<path id="Vector" fill-rule="evenodd" clip-rule="evenodd" d="M5.06662 1.23182C5.71551 1.20195 5.9224 1.19531 7.57534 1.19531C9.22828 1.19531 9.43517 1.2025 10.0835 1.23182C10.7319 1.26114 11.1744 1.36459 11.5616 1.5145C11.9671 1.66774 12.335 1.90727 12.6393 2.21706C12.949 2.52076 13.188 2.88808 13.3407 3.29412C13.4912 3.68135 13.5941 4.12391 13.6239 4.77114C13.6538 5.42114 13.6604 5.62804 13.6604 7.28042C13.6604 8.93335 13.6533 9.14025 13.6239 9.78914C13.5946 10.4364 13.4912 10.8789 13.3407 11.2662C13.188 11.6723 12.9486 12.0402 12.6393 12.3443C12.335 12.6541 11.9671 12.8931 11.5616 13.0458C11.1744 13.1962 10.7318 13.2991 10.0846 13.329C9.43517 13.3589 9.22828 13.3655 7.57534 13.3655C5.9224 13.3655 5.71551 13.3583 5.06662 13.329C4.41938 13.2997 3.97683 13.1962 3.5896 13.0458C3.18351 12.8931 2.81558 12.6537 2.51143 12.3443C2.20185 12.0404 1.96228 11.6727 1.80943 11.2667C1.65951 10.8795 1.55662 10.4369 1.52674 9.78969C1.49687 9.13969 1.49023 8.9328 1.49023 7.28042C1.49023 5.62748 1.49743 5.42059 1.52674 4.77225C1.55606 4.12391 1.65951 3.68135 1.80943 3.29412C1.96251 2.88812 2.20226 2.52038 2.51198 2.2165C2.8157 1.90699 3.18326 1.66743 3.58904 1.5145C3.97628 1.36459 4.41883 1.2617 5.06606 1.23182H5.06662ZM10.0343 2.32714C9.39257 2.29782 9.20006 2.29174 7.57534 2.29174C5.95062 2.29174 5.75811 2.29782 5.1164 2.32714C4.52283 2.35425 4.20087 2.45327 3.98623 2.5368C3.70245 2.64744 3.49943 2.77855 3.28645 2.99153C3.08456 3.18794 2.92919 3.42704 2.83172 3.69131C2.74819 3.90595 2.64917 4.22791 2.62206 4.82148C2.59274 5.46318 2.58666 5.65569 2.58666 7.28042C2.58666 8.90514 2.59274 9.09765 2.62206 9.73935C2.64917 10.3329 2.74819 10.6549 2.83172 10.8695C2.92909 11.1334 3.08453 11.3729 3.28645 11.5693C3.48283 11.7712 3.72236 11.9267 3.98623 12.024C4.20087 12.1076 4.52283 12.2066 5.1164 12.2337C5.75811 12.263 5.95006 12.2691 7.57534 12.2691C9.20062 12.2691 9.39257 12.263 10.0343 12.2337C10.6279 12.2066 10.9498 12.1076 11.1644 12.024C11.4482 11.9134 11.6513 11.7823 11.8642 11.5693C12.0661 11.3729 12.2216 11.1334 12.319 10.8695C12.4025 10.6549 12.5015 10.3329 12.5286 9.73935C12.5579 9.09765 12.564 8.90514 12.564 7.28042C12.564 5.65569 12.5579 5.46318 12.5286 4.82148C12.5015 4.22791 12.4025 3.90595 12.319 3.69131C12.2083 3.40753 12.0772 3.2045 11.8642 2.99153C11.6678 2.78965 11.4287 2.63428 11.1644 2.5368C10.9498 2.45327 10.6279 2.35425 10.0343 2.32714ZM6.79811 9.15629C7.23217 9.33698 7.71551 9.36137 8.16556 9.22528C8.6156 9.0892 9.00445 8.8011 9.26568 8.41017C9.5269 8.01924 9.64431 7.54975 9.59783 7.08188C9.55136 6.61401 9.3439 6.17679 9.01087 5.84489C8.79858 5.63272 8.54188 5.47027 8.25927 5.36922C7.97665 5.26817 7.67515 5.23104 7.37647 5.2605C7.07778 5.28996 6.78934 5.38528 6.53191 5.5396C6.27449 5.69391 6.05448 5.90338 5.88772 6.15293C5.72097 6.40248 5.61161 6.6859 5.56754 6.98278C5.52347 7.27966 5.54576 7.58262 5.63283 7.86985C5.7199 8.15708 5.86956 8.42144 6.07106 8.64388C6.27255 8.86633 6.52086 9.04133 6.79811 9.15629ZM5.36368 5.06876C5.65412 4.77832 5.99892 4.54793 6.3784 4.39075C6.75788 4.23356 7.1646 4.15266 7.57534 4.15266C7.98608 4.15266 8.3928 4.23356 8.77228 4.39075C9.15176 4.54793 9.49656 4.77832 9.787 5.06876C10.0774 5.3592 10.3078 5.704 10.465 6.08348C10.6222 6.46295 10.7031 6.86968 10.7031 7.28042C10.7031 7.69116 10.6222 8.09788 10.465 8.47736C10.3078 8.85684 10.0774 9.20164 9.787 9.49208C9.20043 10.0786 8.40487 10.4082 7.57534 10.4082C6.74581 10.4082 5.95025 10.0786 5.36368 9.49208C4.77711 8.90551 4.44758 8.10995 4.44758 7.28042C4.44758 6.45088 4.77711 5.65533 5.36368 5.06876ZM11.3968 4.61846C11.4688 4.55057 11.5264 4.46892 11.5662 4.37836C11.6061 4.2878 11.6274 4.19016 11.6288 4.09123C11.6302 3.9923 11.6118 3.89408 11.5746 3.8024C11.5374 3.71071 11.4822 3.62742 11.4123 3.55746C11.3423 3.4875 11.259 3.43228 11.1673 3.39509C11.0756 3.35789 10.9774 3.33947 10.8785 3.34091C10.7796 3.34235 10.6819 3.36363 10.5914 3.40348C10.5008 3.44334 10.4191 3.50096 10.3513 3.57293C10.2192 3.7129 10.1469 3.89883 10.1497 4.09123C10.1525 4.28364 10.2302 4.46737 10.3663 4.60344C10.5023 4.7395 10.6861 4.81718 10.8785 4.81999C11.0709 4.82279 11.2568 4.7505 11.3968 4.61846Z" fill="white"/>
</g>
</g>
<defs>
<clipPath id="clip0_1224_8831">
<rect width="13.2766" height="13.2766" fill="white" transform="translate(0.936523 0.636719)"/>
</clipPath>
</defs>
</svg>
