<svg width="14" height="14" viewBox="0 0 14 14" fill="none" xmlns="http://www.w3.org/2000/svg">
<g id="cib:linkedin-in" clip-path="url(#clip0_1224_8841)">
<path id="Vector" d="M3.51559 12.2537H1.10713V4.49772H3.51559V12.2537ZM2.30991 3.43974C1.53987 3.43974 0.915039 2.80163 0.915039 2.03159C0.915039 1.66165 1.062 1.30686 1.32359 1.04527C1.58518 0.783678 1.93997 0.636719 2.30991 0.636719C2.67985 0.636719 3.03465 0.783678 3.29624 1.04527C3.55782 1.30686 3.70478 1.66165 3.70478 2.03159C3.70478 2.80163 3.07995 3.43974 2.30991 3.43974ZM12.5296 12.2537H10.1265V8.47821C10.1265 7.5783 10.1083 6.42448 8.87436 6.42448C7.62221 6.42448 7.43011 7.40197 7.43011 8.41348V12.2537H5.02415V4.49772H7.33386V5.5557H7.36746C7.68901 4.94622 8.4744 4.30313 9.64606 4.30313C12.0836 4.30313 12.5316 5.90836 12.5316 7.9932V12.2537H12.5296Z" fill="white"/>
</g>
<defs>
<clipPath id="clip0_1224_8841">
<rect width="13.2766" height="13.2766" fill="white" transform="translate(0.0859375 0.636719)"/>
</clipPath>
</defs>
</svg>
