<svg width="148" height="22" viewBox="0 0 148 22" fill="none" xmlns="http://www.w3.org/2000/svg">
<g clip-path="url(#clip0_262_8493)">
<g opacity="0.6">
<path d="M7.7694 2.65451C0.793329 15.0201 -0.000976562 15.1563 -0.000976562 17.1747C0.000154278 17.758 0.117911 18.3355 0.345553 18.8739C0.573195 19.4124 0.906253 19.9012 1.32567 20.3126C1.74508 20.7239 2.24261 21.0496 2.78979 21.2711C3.33696 21.4925 3.92304 21.6053 4.51448 21.6031C7.57946 21.6031 7.89028 19.0482 11.9481 19.0482C12.6042 19.0401 13.2582 19.1233 13.8907 19.2952C13.6192 18.6291 13.4786 17.9181 13.4763 17.2002V17.1065C12.9676 17.0317 12.4539 16.9947 11.9395 16.9958C7.29455 16.9958 6.66428 19.5507 4.51448 19.5507C4.19701 19.5518 3.88243 19.4912 3.5887 19.3724C3.29497 19.2536 3.02783 19.0789 2.80255 18.8583C2.57727 18.6377 2.39825 18.3754 2.27571 18.0865C2.15317 17.7977 2.08952 17.4878 2.08839 17.1747C2.08839 16.0761 2.1661 16.6381 9.53932 3.67645C9.78137 3.25683 10.1318 2.90793 10.5549 2.66522C10.978 2.42251 11.4587 2.29465 11.9481 2.29465C12.4376 2.29465 12.9183 2.42251 13.3414 2.66522C13.7645 2.90793 14.1149 3.25683 14.357 3.67645C15.5484 5.77144 16.5413 7.50023 17.3874 8.94799C17.75 8.33482 18.1472 7.64501 18.5875 6.88707C17.8795 5.66073 17.0766 4.26407 16.1787 2.62896C15.7457 1.90794 15.1293 1.31096 14.3905 0.897133C13.6518 0.483305 12.8162 0.266973 11.9666 0.269554C11.1171 0.272135 10.2829 0.49354 9.54671 0.91185C8.81053 1.33016 8.19788 1.93087 7.7694 2.65451Z" fill="#306CFE"/>
</g>
<path d="M31.0807 2.65481C30.6528 1.92257 30.0369 1.31442 29.295 0.891568C28.5531 0.46872 27.7114 0.246094 26.8545 0.246094C25.9977 0.246094 25.1559 0.46872 24.414 0.891568C23.6721 1.31442 23.0562 1.92257 22.6283 2.65481C15.7213 15.0204 14.8579 15.1566 14.8579 17.1324C14.859 17.7158 14.9768 18.2932 15.2044 18.8317C15.4321 19.3701 15.7651 19.859 16.1846 20.2703C16.604 20.6816 17.1015 21.0073 17.6487 21.2288C18.1959 21.4502 18.7819 21.5631 19.3734 21.5608C22.4384 21.5608 22.7492 19.0059 26.807 19.0059C30.8649 19.0059 31.1843 21.5608 34.2493 21.5608C35.4431 21.5631 36.5891 21.0981 37.4356 20.2678C38.2822 19.4376 38.7602 18.3099 38.7648 17.1324C38.7734 15.1566 37.9877 15.0204 31.0807 2.65481ZM34.2925 19.551C32.2549 19.551 31.4175 16.9961 26.8416 16.9961C22.2657 16.9961 21.5663 19.551 19.4165 19.551C19.0991 19.5521 18.7845 19.4915 18.4908 19.3727C18.197 19.2539 17.9299 19.0792 17.7046 18.8586C17.4793 18.638 17.3003 18.3757 17.1778 18.0868C17.0552 17.798 16.9916 17.4881 16.9904 17.175C16.9904 16.0764 17.0682 16.6384 24.4414 3.67676C24.6834 3.25714 25.0338 2.90824 25.4569 2.66553C25.88 2.42282 26.3608 2.29496 26.8502 2.29496C27.3397 2.29496 27.8204 2.42282 28.2435 2.66553C28.6666 2.90824 29.017 3.25714 29.259 3.67676C36.6322 16.6384 36.7186 16.0764 36.7186 17.175C36.7163 17.4907 36.6508 17.8028 36.5257 18.0934C36.4006 18.384 36.2184 18.6474 35.9897 18.8682C35.761 19.0891 35.4902 19.2631 35.193 19.3803C34.8958 19.4975 34.578 19.5555 34.258 19.551H34.2925Z" fill="#306CFE"/>
</g>
<path d="M69.8457 7.28104C69.7202 6.97192 69.878 6.61953 70.1992 6.52936C70.7252 6.38172 71.3154 6.26107 71.9699 6.1674C72.8787 6.02433 73.8288 5.9528 74.8202 5.9528C75.6794 5.9528 76.3982 6.03734 76.9765 6.20641C77.5548 6.36249 78.0092 6.59009 78.3397 6.88923C78.6866 7.18836 78.9262 7.54603 79.0584 7.96222C79.2071 8.37841 79.2815 8.84663 79.2815 9.36687C79.2815 9.93913 79.2567 10.5179 79.2071 11.1032C79.1576 11.6754 79.1245 12.2412 79.108 12.8004C79.108 13.3597 79.1328 13.906 79.1824 14.4392C79.2032 14.658 79.2372 14.8723 79.2844 15.0819C79.3764 15.4908 79.0898 15.9219 78.6707 15.9219H77.3281C77.0863 15.9219 76.8694 15.7732 76.7822 15.5477L76.4329 14.6441C76.4169 14.6029 76.3773 14.5758 76.3331 14.5758C76.3011 14.5758 76.2708 14.5902 76.2501 14.6146C75.922 15.0016 75.4702 15.3398 74.8945 15.6292C74.3162 15.9154 73.5644 16.0584 72.6391 16.0584C72.0608 16.0584 71.5403 15.9934 71.0777 15.8634C70.615 15.7203 70.2185 15.5252 69.888 15.2781C69.5575 15.018 69.3014 14.7188 69.1196 14.3807C68.9379 14.0295 68.847 13.6393 68.847 13.2101C68.847 12.6119 69.0122 12.1111 69.3427 11.7079C69.6897 11.2918 70.1771 10.9601 70.805 10.713C71.4494 10.4529 72.2095 10.2773 73.0852 10.1862C73.9775 10.0822 74.9689 10.0497 76.0594 10.0887C76.1751 9.36036 76.109 8.84012 75.8612 8.52798C75.6133 8.20283 75.0598 8.04026 74.2006 8.04026C73.5562 8.04026 72.8704 8.09228 72.1434 8.19633C71.685 8.26346 71.2782 8.34413 70.9229 8.43834C70.6182 8.51913 70.2897 8.3746 70.1711 8.08256L69.8457 7.28104ZM73.7049 13.971C74.3493 13.971 74.8615 13.8604 75.2415 13.6393C75.6216 13.4052 75.9025 13.1581 76.0842 12.898V11.6299C75.572 11.5909 75.0763 11.5844 74.5971 11.6104C74.1345 11.6364 73.7214 11.6949 73.3579 11.786C72.9944 11.877 72.7052 12.0071 72.4904 12.1762C72.2756 12.3452 72.1682 12.5598 72.1682 12.82C72.1682 13.1841 72.3004 13.4703 72.5648 13.6783C72.8457 13.8734 73.2257 13.971 73.7049 13.971Z" fill="white"/>
<path d="M88.9385 7.89278C88.8782 8.23315 88.538 8.44336 88.1975 8.38393C87.928 8.3369 87.6749 8.31338 87.4381 8.31338C86.8598 8.31338 86.3723 8.43694 85.9758 8.68405C85.6274 8.89862 85.3832 9.17327 85.2431 9.508C85.2177 9.56881 85.2074 9.63464 85.2074 9.70056V15.3171C85.2074 15.6403 84.9454 15.9024 84.6222 15.9024H82.5706C82.2474 15.9024 81.9854 15.6403 81.9854 15.3171V6.73316C81.9854 6.40992 82.2474 6.14789 82.5706 6.14789H84.0485C84.3092 6.14789 84.5384 6.32033 84.6108 6.5708L84.8604 7.43548C85.1413 6.95426 85.6205 6.58359 86.0997 6.32347C86.5789 6.06335 87.1407 5.93329 87.7851 5.93329C88.0714 5.93329 88.3835 5.96508 88.7213 6.02865C89.0208 6.08503 89.2065 6.37898 89.1533 6.67911L88.9385 7.89278Z" fill="white"/>
<path d="M94.9397 12.0985C94.8292 11.9509 94.6556 11.864 94.4712 11.864H93.8967V15.3171C93.8967 15.6403 93.6347 15.9024 93.3114 15.9024H91.2599C90.9367 15.9024 90.6746 15.6403 90.6746 15.3171V3.77936C90.6746 3.53 90.8326 3.30802 91.0683 3.22636L93.1198 2.51536C93.5 2.38358 93.8967 2.66595 93.8967 3.06836V10.3033C94.3815 10.1252 94.8025 9.80727 95.1064 9.38971L97.3332 6.32993C97.4165 6.21555 97.5494 6.14789 97.6909 6.14789H99.79C100.281 6.14789 100.554 6.71636 100.246 7.09943L97.4408 10.5959L98.1349 11.3568L100.795 14.9701C101.079 15.3566 100.803 15.9024 100.323 15.9024H98.0809C97.8965 15.9024 97.7229 15.8155 97.6124 15.6679L94.9397 12.0985Z" fill="white"/>
<path d="M112.153 14.5666C112.329 14.8403 112.248 15.2063 111.953 15.3436C111.535 15.5383 111.03 15.7115 110.44 15.8634C109.598 16.0714 108.697 16.1755 107.739 16.1755C105.74 16.1755 104.277 15.7203 103.352 14.8099C102.427 13.8864 101.964 12.6249 101.964 11.0251C101.964 9.30834 102.484 8.02075 103.525 7.16235C104.566 6.30396 106.029 5.87476 107.912 5.87476C108.54 5.87476 109.152 5.93979 109.746 6.06985C110.341 6.19991 110.87 6.41451 111.333 6.71365C111.795 7.01278 112.167 7.41597 112.448 7.9232C112.729 8.43044 112.869 9.06123 112.869 9.81557C112.869 10.0887 112.845 10.3813 112.795 10.6935C112.734 11.2723 112.212 11.6689 111.63 11.6689H105.186C105.236 12.4883 105.5 13.1061 105.979 13.5223C106.475 13.9385 107.268 14.1466 108.359 14.1466C109.036 14.1466 109.639 14.0685 110.168 13.9125C110.445 13.8265 110.688 13.7405 110.897 13.6546C111.19 13.5341 111.543 13.617 111.714 13.8833L112.153 14.5666ZM107.863 7.90369C107.02 7.90369 106.392 8.10529 105.979 8.50847C105.583 8.89865 105.343 9.42539 105.26 10.0887H109.338C109.64 10.0887 109.901 9.85768 109.879 9.5565C109.846 9.10737 109.703 8.74502 109.449 8.46945C109.119 8.09228 108.59 7.90369 107.863 7.90369Z" fill="white"/>
<path d="M113.856 6.73316C113.856 6.40992 114.118 6.14789 114.441 6.14789H115.566V4.74002C115.566 4.4861 115.73 4.26115 115.972 4.18309L118.023 3.52035C118.401 3.39825 118.788 3.68009 118.788 4.07728V6.14789H121.227C121.55 6.14789 121.812 6.40992 121.812 6.73316V7.7086C121.812 8.03184 121.55 8.29387 121.227 8.29387H118.788V12.0396C118.788 12.7159 118.871 13.2036 119.036 13.5028C119.218 13.7889 119.548 13.932 120.028 13.932C120.358 13.932 120.639 13.906 120.87 13.8539C120.944 13.8384 121.02 13.8206 121.099 13.8004C121.423 13.7169 121.767 13.89 121.861 14.2117L122.106 15.0511C122.192 15.3444 122.038 15.6558 121.746 15.7438C121.426 15.8398 121.077 15.9252 120.697 15.9999C120.102 16.117 119.499 16.1755 118.887 16.1755C117.747 16.1755 116.905 15.9479 116.359 15.4927C115.831 15.0245 115.566 14.2636 115.566 13.2101V8.29387H114.441C114.118 8.29387 113.856 8.03184 113.856 7.7086V6.73316Z" fill="white"/>
<path d="M133.259 14.5666C133.435 14.8403 133.354 15.2063 133.059 15.3436C132.641 15.5383 132.136 15.7115 131.546 15.8634C130.704 16.0714 129.803 16.1755 128.845 16.1755C126.846 16.1755 125.383 15.7203 124.458 14.8099C123.533 13.8864 123.07 12.6249 123.07 11.0251C123.07 9.30834 123.59 8.02075 124.631 7.16235C125.672 6.30396 127.135 5.87476 129.018 5.87476C129.646 5.87476 130.258 5.93979 130.852 6.06985C131.447 6.19991 131.976 6.41451 132.439 6.71365C132.901 7.01278 133.273 7.41597 133.554 7.9232C133.835 8.43044 133.975 9.06123 133.975 9.81557C133.975 10.0887 133.951 10.3813 133.901 10.6935C133.84 11.2723 133.318 11.6689 132.736 11.6689H126.292C126.342 12.4883 126.606 13.1061 127.085 13.5223C127.581 13.9385 128.374 14.1466 129.464 14.1466C130.142 14.1466 130.745 14.0685 131.274 13.9125C131.551 13.8265 131.794 13.7405 132.003 13.6546C132.296 13.5341 132.649 13.617 132.82 13.8833L133.259 14.5666ZM128.969 7.90369C128.126 7.90369 127.498 8.10529 127.085 8.50847C126.689 8.89865 126.449 9.42539 126.366 10.0887H130.444C130.746 10.0887 131.007 9.85768 130.985 9.5565C130.952 9.10737 130.809 8.74502 130.555 8.46945C130.225 8.09228 129.696 7.90369 128.969 7.90369Z" fill="white"/>
<path d="M146.614 18.4103C146.614 18.6694 146.444 18.8976 146.195 18.9714L144.144 19.5808C143.769 19.6922 143.392 19.4111 143.392 19.0198V15.0635C143.111 15.4016 142.632 15.6748 142.153 15.8829C141.673 16.0779 141.054 16.1755 140.294 16.1755C138.757 16.1755 137.576 15.7658 136.75 14.9464C135.94 14.1271 135.535 12.885 135.535 11.2202C135.535 9.47742 136.089 8.15731 137.196 7.2599C138.319 6.36249 139.922 5.91378 142.004 5.91378C142.45 5.91378 142.896 5.93329 143.342 5.97231C143.788 5.99832 144.21 6.04384 144.606 6.10887C145.019 6.16089 145.399 6.22592 145.746 6.30396C145.904 6.3335 146.05 6.36305 146.184 6.39259C146.44 6.44915 146.614 6.68024 146.614 6.94247V18.4103ZM141.161 14.0295C141.789 14.0295 142.268 13.919 142.599 13.6979C142.917 13.4948 143.166 13.1985 143.346 12.8089C143.378 12.7396 143.392 12.6636 143.392 12.5873V8.31338C143.144 8.20933 142.863 8.1443 142.549 8.11829C142.235 8.07927 141.88 8.05977 141.483 8.05977C140.608 8.05977 139.947 8.31989 139.501 8.84012C139.071 9.36036 138.856 10.1212 138.856 11.1227C138.856 12.0721 139.055 12.7939 139.451 13.2882C139.848 13.7824 140.418 14.0295 141.161 14.0295Z" fill="white"/>
<path d="M63.4472 7.06603L59.0388 13.1441C58.9287 13.2959 58.7525 13.3857 58.565 13.3857H58.0662C57.8817 13.3857 57.7079 13.2987 57.5974 13.1508L53.169 7.22555L53.1634 15.3175C53.1631 15.6406 52.9012 15.9024 52.5781 15.9024H50.5262C50.203 15.9024 49.9409 15.6403 49.9409 15.3171V2.83136C49.9409 2.50813 50.203 2.24609 50.5262 2.24609H52.749C52.9317 2.24609 53.104 2.33149 53.2147 2.47694L58.4623 9.37284C58.4808 9.39725 58.5097 9.41157 58.5404 9.41157C58.5721 9.41157 58.6018 9.3963 58.6203 9.37054L63.5463 2.49064C63.6562 2.33715 63.8334 2.24609 64.0221 2.24609H66.2094C66.5327 2.24609 66.7947 2.50813 66.7947 2.83136V15.3171C66.7947 15.6403 66.5327 15.9024 66.2094 15.9024H63.9876C63.6631 15.9024 63.4006 15.6384 63.4024 15.3139L63.4472 7.06603Z" fill="white"/>
<defs>
<clipPath id="clip0_262_8493">
<rect width="38.7742" height="21.3587" fill="white" transform="translate(0 0.246094)"/>
</clipPath>
</defs>
</svg>
