<svg xmlns="http://www.w3.org/2000/svg" width="30" height="17" viewBox="0 0 30 17" fill="none">
  <g clip-path="url(#clip0_919_4408)">
    <g opacity="0.6">
      <path d="M5.81337 1.97571C0.594256 11.2269 0 11.3289 0 12.8389C0.000846032 13.2753 0.0889448 13.7074 0.259254 14.1102C0.429563 14.513 0.678739 14.8788 0.992521 15.1865C1.3063 15.4942 1.67853 15.7379 2.0879 15.9036C2.49726 16.0693 2.93573 16.1537 3.37821 16.152C5.67127 16.152 5.9038 14.2406 8.93967 14.2406C9.43052 14.2345 9.91977 14.2967 10.393 14.4254C10.1899 13.927 10.0847 13.3951 10.083 12.858V12.7879C9.70237 12.7319 9.31803 12.7042 8.93321 12.7051C5.45811 12.7051 4.98658 14.6165 3.37821 14.6165C3.14071 14.6173 2.90535 14.572 2.6856 14.4831C2.46584 14.3943 2.26599 14.2636 2.09744 14.0985C1.9289 13.9334 1.79497 13.7372 1.70329 13.5211C1.61162 13.305 1.564 13.0732 1.56315 12.8389C1.56315 12.017 1.62128 12.4375 7.13753 2.74028C7.31862 2.42634 7.58076 2.16531 7.8973 1.98373C8.21385 1.80215 8.57349 1.70649 8.93967 1.70649C9.30585 1.70649 9.6655 1.80215 9.98204 1.98373C10.2986 2.16531 10.5607 2.42634 10.7418 2.74028C11.6332 4.30763 12.376 5.60102 13.009 6.68415C13.2803 6.22541 13.5775 5.70933 13.9069 5.14228C13.3772 4.22481 12.7765 3.1799 12.1047 1.9566C11.7808 1.41717 11.3196 0.970547 10.7669 0.660944C10.2142 0.35134 9.58912 0.189492 8.95351 0.191423C8.3179 0.193354 7.69382 0.358997 7.14305 0.671953C6.59229 0.98491 6.13393 1.43433 5.81337 1.97571Z" fill="#306CFE"/>
    </g>
    <path d="M23.2532 1.97395C22.9331 1.42612 22.4723 0.971135 21.9173 0.654783C21.3622 0.338432 20.7325 0.171875 20.0914 0.171875C19.4504 0.171875 18.8206 0.338432 18.2656 0.654783C17.7105 0.971135 17.2497 1.42612 16.9296 1.97395C11.7621 11.2252 11.1162 11.3271 11.1162 12.8053C11.1171 13.2417 11.2052 13.6737 11.3755 14.0766C11.5458 14.4794 11.795 14.8452 12.1087 15.1529C12.4225 15.4606 12.7947 15.7043 13.2041 15.87C13.6135 16.0356 14.0519 16.1201 14.4944 16.1184C16.7875 16.1184 17.02 14.207 20.0559 14.207C23.0918 14.207 23.3307 16.1184 25.6238 16.1184C26.5169 16.1201 27.3743 15.7722 28.0076 15.151C28.641 14.5299 28.9986 13.6862 29.002 12.8053C29.0085 11.3271 28.4207 11.2252 23.2532 1.97395ZM25.6561 14.6147C24.1317 14.6147 23.5052 12.7033 20.0817 12.7033C16.6583 12.7033 16.1351 14.6147 14.5267 14.6147C14.2892 14.6156 14.0539 14.5703 13.8341 14.4814C13.6144 14.3925 13.4145 14.2618 13.246 14.0967C13.0774 13.9317 12.9435 13.7355 12.8518 13.5193C12.7601 13.3032 12.7125 13.0714 12.7117 12.8371C12.7117 12.0152 12.7698 12.4357 18.286 2.73851C18.4671 2.42457 18.7293 2.16354 19.0458 1.98196C19.3624 1.80038 19.722 1.70472 20.0882 1.70472C20.4544 1.70472 20.814 1.80038 21.1305 1.98196C21.4471 2.16354 21.7092 2.42457 21.8903 2.73851C27.4066 12.4357 27.4712 12.0152 27.4712 12.8371C27.4695 13.0733 27.4204 13.3069 27.3268 13.5243C27.2333 13.7417 27.097 13.9387 26.9259 14.1039C26.7547 14.2692 26.5522 14.3994 26.3298 14.487C26.1074 14.5747 25.8697 14.6181 25.6303 14.6147H25.6561Z" fill="#306CFE"/>
  </g>
  <defs>
    <clipPath id="clip0_919_4408">
      <rect width="29.0087" height="15.9794" fill="white" transform="translate(0 0.167969)"/>
    </clipPath>
  </defs>
</svg>