<svg xmlns="http://www.w3.org/2000/svg" width="73" height="14" viewBox="0 0 73 14" fill="none">
<path d="M15.566 4.73171C15.4721 4.50045 15.5901 4.23681 15.8305 4.16935C16.2239 4.05889 16.6655 3.96863 17.1552 3.89855C17.8351 3.79151 18.5459 3.73799 19.2876 3.73799C19.9304 3.73799 20.4682 3.80124 20.9008 3.92774C21.3335 4.0445 21.6735 4.21478 21.9207 4.43858C22.1803 4.66238 22.3595 4.92996 22.4584 5.24134C22.5697 5.55271 22.6253 5.903 22.6253 6.29221C22.6253 6.72035 22.6068 7.15335 22.5697 7.59122C22.5326 8.01935 22.5079 8.44262 22.4955 8.86103C22.4955 9.27943 22.5141 9.68811 22.5511 10.0871C22.5667 10.2508 22.5922 10.411 22.6275 10.5679C22.6963 10.8738 22.4819 11.1963 22.1683 11.1963H21.1639C20.983 11.1963 20.8207 11.0851 20.7555 10.9164L20.4941 10.2404C20.4822 10.2095 20.4526 10.1892 20.4195 10.1892C20.3955 10.1892 20.3729 10.2 20.3574 10.2183C20.112 10.5078 19.7739 10.7608 19.3432 10.9774C18.9106 11.1914 18.3481 11.2985 17.6559 11.2985C17.2232 11.2985 16.8338 11.2498 16.4877 11.1525C16.1415 11.0455 15.8448 10.8995 15.5976 10.7147C15.3504 10.5201 15.1588 10.2963 15.0228 10.0433C14.8868 9.78055 14.8188 9.48864 14.8188 9.16753C14.8188 8.71994 14.9424 8.34532 15.1897 8.04368C15.4493 7.73231 15.8139 7.48418 16.2837 7.29931C16.7658 7.1047 17.3344 6.97334 17.9896 6.90523C18.6572 6.82738 19.3989 6.80306 20.2148 6.83225C20.3013 6.28735 20.2518 5.89813 20.0664 5.66461C19.881 5.42135 19.4669 5.29972 18.8241 5.29972C18.3419 5.29972 17.8289 5.33864 17.285 5.41648C16.942 5.46671 16.6377 5.52706 16.3719 5.59754C16.144 5.65798 15.8982 5.54985 15.8095 5.33136L15.566 4.73171ZM18.4532 9.73676C18.9353 9.73676 19.3185 9.65405 19.6028 9.48864C19.8872 9.31349 20.0973 9.12861 20.2333 8.93401V7.9853C19.8501 7.9561 19.4792 7.95124 19.1207 7.9707C18.7746 7.99016 18.4656 8.03395 18.1936 8.10206C17.9216 8.17017 17.7053 8.26748 17.5446 8.39397C17.3839 8.52046 17.3035 8.68102 17.3035 8.87562C17.3035 9.14807 17.4024 9.36214 17.6002 9.51783C17.8104 9.66378 18.0947 9.73676 18.4532 9.73676Z" fill="white"/>
<path d="M29.8501 5.18938C29.8051 5.44403 29.5505 5.6013 29.2958 5.55683C29.0942 5.52165 28.9048 5.50405 28.7276 5.50405C28.295 5.50405 27.9303 5.59649 27.6336 5.78137C27.373 5.94189 27.1903 6.14737 27.0855 6.3978C27.0664 6.4433 27.0588 6.49255 27.0588 6.54187V10.7439C27.0588 10.9857 26.8627 11.1817 26.6209 11.1817H25.0861C24.8443 11.1817 24.6482 10.9857 24.6482 10.7439V4.32182C24.6482 4.07999 24.8443 3.88395 25.0861 3.88395H26.1917C26.3868 3.88395 26.5583 4.01296 26.6124 4.20035L26.7992 4.84726C27.0093 4.48723 27.3678 4.20992 27.7263 4.01531C28.0848 3.8207 28.5051 3.7234 28.9872 3.7234C29.2015 3.7234 29.435 3.74718 29.6877 3.79474C29.9118 3.83692 30.0506 4.05684 30.0109 4.28138L29.8501 5.18938Z" fill="white"/>
<path d="M34.3399 8.33587C34.2573 8.22544 34.1274 8.16044 33.9894 8.16044H33.5596V10.7439C33.5596 10.9857 33.3636 11.1817 33.1217 11.1817H31.5869C31.3451 11.1817 31.149 10.9857 31.149 10.7439V2.11195C31.149 1.92539 31.2673 1.75932 31.4435 1.69823L32.9783 1.16629C33.2628 1.06771 33.5596 1.27896 33.5596 1.58002V6.9928C33.9223 6.85958 34.2373 6.6217 34.4646 6.3093L36.1306 4.02014C36.1929 3.93457 36.2924 3.88395 36.3982 3.88395H37.9686C38.3361 3.88395 38.5401 4.30925 38.3102 4.59585L36.2111 7.21173L36.7304 7.78096L38.7203 10.4843C38.9331 10.7734 38.7267 11.1817 38.3677 11.1817H36.69C36.552 11.1817 36.4221 11.1167 36.3395 11.0063L34.3399 8.33587Z" fill="white"/>
<path d="M47.2183 10.1823C47.3499 10.3871 47.2892 10.661 47.0685 10.7636C46.7553 10.9093 46.3781 11.039 45.9367 11.1525C45.3063 11.3082 44.6326 11.3861 43.9156 11.3861C42.4198 11.3861 41.3258 11.0455 40.6335 10.3644C39.9413 9.67351 39.5951 8.72967 39.5951 7.53283C39.5951 6.24843 39.9845 5.28512 40.7633 4.64292C41.5421 4.00072 42.6361 3.67961 44.0454 3.67961C44.5151 3.67961 44.9725 3.72827 45.4175 3.82557C45.8626 3.92287 46.2582 4.08342 46.6043 4.30722C46.9504 4.53102 47.2286 4.83266 47.4387 5.21214C47.6489 5.59163 47.7539 6.06355 47.7539 6.62791C47.7539 6.83225 47.7354 7.05118 47.6983 7.28471C47.6525 7.71773 47.2622 8.01449 46.8267 8.01449H42.0057C42.0428 8.6275 42.2406 9.08969 42.599 9.40106C42.9699 9.71243 43.5633 9.86812 44.3792 9.86812C44.886 9.86812 45.3372 9.80974 45.7328 9.69297C45.9402 9.62866 46.122 9.56434 46.2783 9.50002C46.4973 9.4099 46.7617 9.47195 46.8898 9.67117L47.2183 10.1823ZM44.0083 5.19755C43.3778 5.19755 42.9081 5.34837 42.599 5.65001C42.3024 5.94192 42.1231 6.336 42.0613 6.83225H45.1117C45.3376 6.83225 45.5331 6.65941 45.5166 6.43408C45.4919 6.09807 45.3847 5.82698 45.195 5.62082C44.9478 5.33864 44.5522 5.19755 44.0083 5.19755Z" fill="white"/>
<path d="M48.4922 4.32182C48.4922 4.07999 48.6882 3.88395 48.93 3.88395H49.7716V2.83066C49.7716 2.6407 49.8941 2.4724 50.0749 2.414L51.6097 1.91817C51.8925 1.82682 52.1822 2.03768 52.1822 2.33484V3.88395H54.0065C54.2484 3.88395 54.4444 4.07999 54.4444 4.32182V5.05159C54.4444 5.29342 54.2484 5.48946 54.0065 5.48946H52.1822V8.2918C52.1822 8.79778 52.244 9.16267 52.3676 9.38647C52.5036 9.60053 52.7508 9.70757 53.1093 9.70757C53.3565 9.70757 53.5667 9.68811 53.7398 9.64919C53.7951 9.63757 53.8521 9.62423 53.9107 9.60916C54.1536 9.54669 54.4107 9.67614 54.4811 9.91688L54.6646 10.5449C54.7287 10.7643 54.6135 10.9973 54.3946 11.0631C54.1557 11.1349 53.8942 11.1988 53.61 11.2547C53.1649 11.3423 52.7137 11.3861 52.2563 11.3861C51.4034 11.3861 50.7729 11.2158 50.365 10.8752C49.9694 10.5249 49.7716 9.95569 49.7716 9.16753V5.48946H48.93C48.6882 5.48946 48.4922 5.29342 48.4922 5.05159V4.32182Z" fill="white"/>
<path d="M63.0086 10.1823C63.1402 10.3871 63.0795 10.661 62.8588 10.7636C62.5457 10.9093 62.1684 11.039 61.7271 11.1525C61.0966 11.3082 60.4229 11.3861 59.7059 11.3861C58.2101 11.3861 57.1161 11.0455 56.4238 10.3644C55.7316 9.67351 55.3854 8.72967 55.3854 7.53283C55.3854 6.24843 55.7748 5.28512 56.5536 4.64292C57.3324 4.00072 58.4264 3.67961 59.8357 3.67961C60.3054 3.67961 60.7628 3.72827 61.2079 3.82557C61.6529 3.92287 62.0485 4.08342 62.3946 4.30722C62.7407 4.53102 63.0189 4.83266 63.229 5.21214C63.4392 5.59163 63.5442 6.06355 63.5442 6.62791C63.5442 6.83225 63.5257 7.05118 63.4886 7.28471C63.4428 7.71773 63.0525 8.01449 62.617 8.01449H57.796C57.8331 8.6275 58.0309 9.08969 58.3894 9.40106C58.7602 9.71243 59.3536 9.86812 60.1695 9.86812C60.6763 9.86812 61.1275 9.80974 61.5231 9.69297C61.7305 9.62866 61.9124 9.56434 62.0686 9.50002C62.2876 9.4099 62.5521 9.47195 62.6801 9.67117L63.0086 10.1823ZM59.7986 5.19755C59.1682 5.19755 58.6984 5.34837 58.3894 5.65001C58.0927 5.94192 57.9134 6.336 57.8516 6.83225H60.902C61.1279 6.83225 61.3235 6.65941 61.3069 6.43408C61.2822 6.09807 61.175 5.82698 60.9854 5.62082C60.7381 5.33864 60.3425 5.19755 59.7986 5.19755Z" fill="white"/>
<path d="M72.9998 13.058C72.9998 13.2518 72.8724 13.4226 72.6866 13.4778L71.1517 13.9337C70.8711 14.0171 70.5892 13.8068 70.5892 13.514V10.5541C70.379 10.8071 70.0205 11.0114 69.6621 11.1671C69.3036 11.3131 68.84 11.3861 68.2713 11.3861C67.1217 11.3861 66.2378 11.0795 65.6197 10.4665C65.014 9.85352 64.7111 8.92428 64.7111 7.67879C64.7111 6.37492 65.1253 5.38729 65.9535 4.7159C66.7941 4.0445 67.9932 3.7088 69.5508 3.7088C69.8846 3.7088 70.2183 3.7234 70.5521 3.75259C70.8859 3.77205 71.2011 3.80611 71.4978 3.85476C71.8068 3.89368 72.0911 3.94233 72.3507 4.00072C72.4687 4.02282 72.5777 4.04492 72.6778 4.06703C72.8694 4.10934 72.9998 4.28223 72.9998 4.47842V13.058ZM68.9203 9.78055C69.3901 9.78055 69.7486 9.69784 69.9958 9.53242C70.2342 9.3805 70.4205 9.15882 70.5547 8.86737C70.5786 8.8155 70.5892 8.75867 70.5892 8.70157V5.50405C70.4038 5.42621 70.1936 5.37756 69.9587 5.3581C69.7239 5.32891 69.4581 5.31431 69.1614 5.31431C68.5062 5.31431 68.0117 5.50892 67.678 5.89813C67.3566 6.28735 67.1959 6.85657 67.1959 7.60581C67.1959 8.31613 67.3442 8.85616 67.6409 9.22592C67.9376 9.59567 68.3641 9.78055 68.9203 9.78055Z" fill="white"/>
<path d="M10.779 4.57085L7.48083 9.1181C7.39846 9.23167 7.26667 9.29889 7.12637 9.29889H6.75322C6.61514 9.29889 6.48515 9.23376 6.40249 9.12316L3.08941 4.6902L3.08518 10.7442C3.08501 10.9859 2.88902 11.1817 2.64731 11.1817H1.11218C0.870356 11.1817 0.674316 10.9857 0.674316 10.7439V1.40271C0.674316 1.16088 0.870356 0.964844 1.11218 0.964844H2.77513C2.91188 0.964844 3.04078 1.02873 3.12358 1.13755L7.04952 6.29668C7.06341 6.31494 7.08504 6.32566 7.10798 6.32566C7.13168 6.32566 7.15392 6.31423 7.16772 6.29496L10.8531 1.1478C10.9353 1.03297 11.0679 0.964844 11.2091 0.964844H12.8455C13.0873 0.964844 13.2834 1.16088 13.2834 1.40271V10.7438C13.2834 10.9857 13.0873 11.1817 12.8455 11.1817H11.1833C10.9405 11.1817 10.7441 10.9842 10.7454 10.7415L10.779 4.57085Z" fill="white"/>
</svg>