<svg width="148" height="22" viewBox="0 0 148 22" fill="none" xmlns="http://www.w3.org/2000/svg">
<g clip-path="url(#clip0_1555_13864)">
<g opacity="0.6">
<path d="M7.7694 2.90304C0.793329 15.2686 -0.000976562 15.4048 -0.000976562 17.4232C0.000154278 18.0066 0.117911 18.584 0.345553 19.1225C0.573194 19.6609 0.906253 20.1498 1.32567 20.5611C1.74508 20.9724 2.24261 21.2981 2.78979 21.5196C3.33696 21.741 3.92304 21.8539 4.51448 21.8516C7.57946 21.8516 7.89028 19.2968 11.9481 19.2968C12.6042 19.2887 13.2582 19.3718 13.8907 19.5437C13.6192 18.8776 13.4786 18.1667 13.4763 17.4487V17.3551C12.9676 17.2802 12.4539 17.2432 11.9395 17.2443C7.29455 17.2443 6.66428 19.7992 4.51448 19.7992C4.19701 19.8003 3.88243 19.7398 3.5887 19.621C3.29497 19.5022 3.02783 19.3275 2.80255 19.1068C2.57727 18.8862 2.39825 18.6239 2.27571 18.3351C2.15317 18.0462 2.08952 17.7363 2.08839 17.4232C2.08839 16.3246 2.1661 16.8867 9.53932 3.92499C9.78137 3.50537 10.1318 3.15646 10.5549 2.91376C10.978 2.67105 11.4587 2.54319 11.9481 2.54319C12.4376 2.54319 12.9183 2.67105 13.3414 2.91376C13.7645 3.15646 14.1149 3.50537 14.357 3.92499C15.5484 6.01998 16.5413 7.74877 17.3874 9.19653C17.75 8.58336 18.1472 7.89354 18.5875 7.1356C17.8795 5.90927 17.0766 4.51261 16.1787 2.87749C15.7457 2.15647 15.1293 1.5595 14.3905 1.14567C13.6518 0.73184 12.8162 0.515508 11.9666 0.518089C11.1171 0.52067 10.2829 0.742075 9.54671 1.16038C8.81053 1.57869 8.19788 2.1794 7.7694 2.90304V2.90304Z" fill="#306CFE"/>
</g>
<path d="M31.0803 2.90335C30.6523 2.1711 30.0364 1.56295 29.2945 1.1401C28.5526 0.717255 27.7109 0.494629 26.854 0.494629C25.9972 0.494629 25.1554 0.717255 24.4135 1.1401C23.6716 1.56295 23.0557 2.1711 22.6278 2.90335C15.7208 15.2689 14.8574 15.4052 14.8574 17.3809C14.8586 17.9643 14.9763 18.5417 15.204 19.0802C15.4316 19.6186 15.7647 20.1075 16.1841 20.5188C16.6035 20.9302 17.101 21.2559 17.6482 21.4773C18.1954 21.6988 18.7814 21.8116 19.3729 21.8093C22.4379 21.8093 22.7487 19.2545 26.8065 19.2545C30.8644 19.2545 31.1839 21.8093 34.2488 21.8093C35.4426 21.8116 36.5886 21.3466 37.4351 20.5163C38.2817 19.6861 38.7597 18.5584 38.7643 17.3809C38.7729 15.4052 37.9873 15.2689 31.0803 2.90335ZM34.292 19.7995C32.2544 19.7995 31.417 17.2447 26.8411 17.2447C22.2652 17.2447 21.5659 19.7995 19.416 19.7995C19.0986 19.8006 18.784 19.7401 18.4903 19.6213C18.1965 19.5025 17.9294 19.3278 17.7041 19.1071C17.4788 18.8865 17.2998 18.6243 17.1773 18.3354C17.0547 18.0465 16.9911 17.7366 16.99 17.4235C16.99 16.3249 17.0677 16.887 24.4409 3.92529C24.6829 3.50568 25.0333 3.15677 25.4564 2.91406C25.8795 2.67135 26.3603 2.5435 26.8497 2.5435C27.3392 2.5435 27.8199 2.67135 28.243 2.91406C28.6661 3.15677 29.0165 3.50568 29.2585 3.92529C36.6318 16.887 36.7181 16.3249 36.7181 17.4235C36.7158 17.7392 36.6503 18.0514 36.5252 18.342C36.4001 18.6326 36.2179 18.8959 35.9892 19.1168C35.7605 19.3376 35.4897 19.5117 35.1925 19.6288C34.8953 19.746 34.5775 19.804 34.2575 19.7995H34.292Z" fill="#306CFE"/>
</g>
<path d="M69.8462 7.52811C69.7207 7.21899 69.8785 6.8666 70.1997 6.77643C70.7257 6.62879 71.3159 6.50814 71.9704 6.41447C72.8792 6.2714 73.8293 6.19987 74.8207 6.19987C75.6799 6.19987 76.3987 6.28441 76.977 6.45348C77.5553 6.60956 78.0097 6.83716 78.3401 7.1363C78.6871 7.43544 78.9267 7.7931 79.0589 8.20929C79.2076 8.62548 79.282 9.0937 79.282 9.61394C79.282 10.1862 79.2572 10.765 79.2076 11.3502C79.1581 11.9225 79.125 12.4883 79.1085 13.0475C79.1085 13.6068 79.1333 14.153 79.1828 14.6863C79.2037 14.9051 79.2377 15.1193 79.2849 15.329C79.3768 15.7378 79.0903 16.1689 78.6712 16.1689H77.3286C77.0868 16.1689 76.8699 16.0203 76.7827 15.7947L76.4334 14.8912C76.4174 14.85 76.3778 14.8228 76.3336 14.8228C76.3016 14.8228 76.2713 14.8373 76.2506 14.8617C75.9225 15.2486 75.4707 15.5868 74.895 15.8763C74.3167 16.1624 73.5649 16.3055 72.6396 16.3055C72.0613 16.3055 71.5408 16.2405 71.0782 16.1104C70.6155 15.9674 70.2189 15.7723 69.8885 15.5252C69.558 15.265 69.3019 14.9659 69.1201 14.6277C68.9384 14.2766 68.8475 13.8864 68.8475 13.4572C68.8475 12.8589 69.0127 12.3582 69.3432 11.955C69.6902 11.5388 70.1776 11.2072 70.8055 10.9601C71.4499 10.6999 72.21 10.5244 73.0857 10.4333C73.978 10.3293 74.9694 10.2968 76.0599 10.3358C76.1756 9.60743 76.1095 9.08719 75.8617 8.77505C75.6138 8.4499 75.0603 8.28733 74.2011 8.28733C73.5566 8.28733 72.8709 8.33935 72.1439 8.4434C71.6855 8.51053 71.2786 8.5912 70.9234 8.68541C70.6187 8.7662 70.2902 8.62167 70.1716 8.32963L69.8462 7.52811ZM73.7054 14.2181C74.3498 14.2181 74.862 14.1075 75.242 13.8864C75.6221 13.6523 75.903 13.4052 76.0847 13.1451V11.877C75.5725 11.838 75.0768 11.8315 74.5976 11.8575C74.135 11.8835 73.7219 11.942 73.3584 12.033C72.9949 12.1241 72.7057 12.2541 72.4909 12.4232C72.2761 12.5923 72.1687 12.8069 72.1687 13.067C72.1687 13.4312 72.3009 13.7173 72.5652 13.9254C72.8461 14.1205 73.2262 14.2181 73.7054 14.2181Z" fill="white"/>
<path d="M88.939 8.13985C88.8787 8.48023 88.5385 8.69043 88.198 8.631C87.9285 8.58397 87.6754 8.56045 87.4386 8.56045C86.8602 8.56045 86.3728 8.68401 85.9762 8.93112C85.6279 9.14569 85.3837 9.42034 85.2436 9.75507C85.2182 9.81588 85.2079 9.88171 85.2079 9.94763V15.5642C85.2079 15.8874 84.9459 16.1494 84.6226 16.1494H82.5711C82.2479 16.1494 81.9859 15.8874 81.9859 15.5642V6.98023C81.9859 6.65699 82.2479 6.39496 82.5711 6.39496H84.049C84.3097 6.39496 84.5389 6.5674 84.6113 6.81787L84.8609 7.68255C85.1418 7.20133 85.621 6.83066 86.1002 6.57054C86.5793 6.31042 87.1411 6.18036 87.7855 6.18036C88.0719 6.18036 88.384 6.21215 88.7218 6.27572C89.0213 6.3321 89.207 6.62605 89.1538 6.92618L88.939 8.13985Z" fill="white"/>
<path d="M94.9402 12.3456C94.8297 12.198 94.6561 12.1111 94.4717 12.1111H93.8972V15.5642C93.8972 15.8874 93.6351 16.1494 93.3119 16.1494H91.2604C90.9372 16.1494 90.6751 15.8874 90.6751 15.5642V4.02643C90.6751 3.77707 90.8331 3.55509 91.0687 3.47343L93.1202 2.76243C93.5005 2.63065 93.8972 2.91302 93.8972 3.31543V10.5504C94.3819 10.3723 94.8029 10.0543 95.1068 9.63678L97.3337 6.577C97.417 6.46262 97.5499 6.39496 97.6914 6.39496H99.7905C100.282 6.39496 100.554 6.96343 100.247 7.3465L97.4413 10.843L98.1354 11.6039L100.795 15.2172C101.08 15.6037 100.804 16.1494 100.324 16.1494H98.0813C97.897 16.1494 97.7234 16.0626 97.6129 15.915L94.9402 12.3456Z" fill="white"/>
<path d="M112.154 14.8136C112.33 15.0873 112.249 15.4534 111.954 15.5906C111.535 15.7854 111.031 15.9586 110.441 16.1104C109.598 16.3185 108.698 16.4226 107.739 16.4226C105.74 16.4226 104.278 15.9674 103.352 15.0569C102.427 14.1335 101.964 12.8719 101.964 11.2722C101.964 9.55541 102.485 8.26782 103.526 7.40942C104.567 6.55103 106.029 6.12183 107.913 6.12183C108.541 6.12183 109.152 6.18686 109.747 6.31692C110.342 6.44698 110.871 6.66158 111.333 6.96072C111.796 7.25985 112.168 7.66304 112.449 8.17027C112.729 8.67751 112.87 9.3083 112.87 10.0626C112.87 10.3358 112.845 10.6284 112.796 10.9405C112.734 11.5193 112.213 11.916 111.631 11.916H105.187C105.236 12.7354 105.5 13.3532 105.98 13.7693C106.475 14.1855 107.268 14.3936 108.359 14.3936C109.036 14.3936 109.64 14.3156 110.168 14.1595C110.446 14.0736 110.689 13.9876 110.898 13.9016C111.19 13.7812 111.544 13.8641 111.715 14.1304L112.154 14.8136ZM107.863 8.15076C107.021 8.15076 106.393 8.35236 105.98 8.75554C105.583 9.14572 105.344 9.67246 105.261 10.3358H109.338C109.64 10.3358 109.901 10.1047 109.879 9.80357C109.846 9.35444 109.703 8.99209 109.45 8.71652C109.119 8.33935 108.59 8.15076 107.863 8.15076Z" fill="white"/>
<path d="M113.857 6.98023C113.857 6.65699 114.119 6.39496 114.442 6.39496H115.567V4.98709C115.567 4.73318 115.731 4.50822 115.972 4.43016L118.024 3.76742C118.402 3.64532 118.789 3.92716 118.789 4.32435V6.39496H121.227C121.551 6.39496 121.813 6.65699 121.813 6.98023V7.95568C121.813 8.27891 121.551 8.54094 121.227 8.54094H118.789V12.2867C118.789 12.963 118.871 13.4507 119.037 13.7498C119.218 14.036 119.549 14.179 120.028 14.179C120.359 14.179 120.639 14.153 120.871 14.101C120.945 14.0855 121.021 14.0676 121.099 14.0475C121.424 13.964 121.768 14.137 121.862 14.4588L122.107 15.2982C122.193 15.5915 122.039 15.9029 121.746 15.9909C121.427 16.0869 121.077 16.1722 120.697 16.247C120.102 16.364 119.499 16.4226 118.888 16.4226C117.748 16.4226 116.905 16.195 116.36 15.7398C115.831 15.2715 115.567 14.5107 115.567 13.4572V8.54094H114.442C114.119 8.54094 113.857 8.27891 113.857 7.95567V6.98023Z" fill="white"/>
<path d="M133.26 14.8136C133.436 15.0873 133.355 15.4534 133.06 15.5906C132.641 15.7854 132.137 15.9586 131.547 16.1104C130.704 16.3185 129.804 16.4226 128.845 16.4226C126.846 16.4226 125.384 15.9674 124.458 15.0569C123.533 14.1335 123.07 12.8719 123.07 11.2722C123.07 9.55541 123.591 8.26782 124.632 7.40942C125.673 6.55103 127.135 6.12183 129.019 6.12183C129.647 6.12183 130.258 6.18686 130.853 6.31692C131.448 6.44698 131.977 6.66158 132.439 6.96072C132.902 7.25985 133.274 7.66304 133.554 8.17027C133.835 8.67751 133.976 9.3083 133.976 10.0626C133.976 10.3358 133.951 10.6284 133.901 10.9405C133.84 11.5193 133.319 11.916 132.736 11.916H126.292C126.342 12.7354 126.606 13.3532 127.086 13.7693C127.581 14.1855 128.374 14.3936 129.465 14.3936C130.142 14.3936 130.746 14.3156 131.274 14.1595C131.552 14.0736 131.795 13.9876 132.003 13.9016C132.296 13.7812 132.65 13.8641 132.821 14.1304L133.26 14.8136ZM128.969 8.15076C128.127 8.15076 127.499 8.35236 127.086 8.75554C126.689 9.14572 126.449 9.67246 126.367 10.3358H130.444C130.746 10.3358 131.007 10.1047 130.985 9.80357C130.952 9.35444 130.809 8.99209 130.556 8.71652C130.225 8.33935 129.696 8.15076 128.969 8.15076Z" fill="white"/>
<path d="M146.614 18.6574C146.614 18.9164 146.444 19.1447 146.196 19.2184L144.144 19.8279C143.769 19.9393 143.392 19.6582 143.392 19.2668V15.3106C143.111 15.6487 142.632 15.9218 142.153 16.1299C141.674 16.325 141.054 16.4226 140.294 16.4226C138.758 16.4226 137.576 16.0129 136.75 15.1935C135.94 14.3741 135.536 13.1321 135.536 11.4673C135.536 9.72449 136.089 8.40438 137.196 7.50697C138.32 6.60956 139.922 6.16085 142.004 6.16085C142.451 6.16085 142.897 6.18036 143.343 6.21938C143.789 6.24539 144.21 6.29091 144.607 6.35594C145.02 6.40796 145.4 6.47299 145.747 6.55103C145.905 6.58057 146.05 6.61012 146.184 6.63966C146.44 6.69622 146.614 6.92731 146.614 7.18954V18.6574ZM141.162 14.2766C141.79 14.2766 142.269 14.166 142.599 13.9449C142.918 13.7419 143.167 13.4456 143.346 13.056C143.378 12.9867 143.392 12.9107 143.392 12.8344V8.56045C143.145 8.4564 142.864 8.39137 142.55 8.36536C142.236 8.32635 141.88 8.30684 141.484 8.30684C140.608 8.30684 139.947 8.56696 139.501 9.08719C139.072 9.60743 138.857 10.3683 138.857 11.3697C138.857 12.3192 139.055 13.041 139.452 13.5352C139.848 14.0295 140.418 14.2766 141.162 14.2766Z" fill="white"/>
<path d="M63.4477 7.3131L59.0393 13.3911C58.9292 13.5429 58.753 13.6328 58.5655 13.6328H58.0667C57.8821 13.6328 57.7084 13.5457 57.5979 13.3979L53.1695 7.47262L53.1639 15.5646C53.1636 15.8877 52.9017 16.1494 52.5786 16.1494H50.5267C50.2034 16.1494 49.9414 15.8874 49.9414 15.5642V3.07843C49.9414 2.7552 50.2034 2.49316 50.5267 2.49316H52.7494C52.9322 2.49316 53.1045 2.57856 53.2152 2.72401L58.4627 9.61991C58.4813 9.64432 58.5102 9.65864 58.5409 9.65864C58.5726 9.65864 58.6023 9.64337 58.6207 9.61761L63.5468 2.73771C63.6567 2.58422 63.8338 2.49316 64.0226 2.49316H66.2099C66.5332 2.49316 66.7952 2.7552 66.7952 3.07843V15.5642C66.7952 15.8874 66.5332 16.1494 66.2099 16.1494H63.9881C63.6636 16.1494 63.4011 15.8855 63.4029 15.561L63.4477 7.3131Z" fill="white"/>
<defs>
<clipPath id="clip0_1555_13864">
<rect width="38.7742" height="21.3587" fill="white" transform="translate(0 0.493164)"/>
</clipPath>
</defs>
</svg>
