<svg xmlns="http://www.w3.org/2000/svg" width="20" height="20" viewBox="0 0 20 20" fill="none">
<path d="M8.70947 16.5078C10.4844 16.5074 12.2083 15.9132 13.6065 14.8198L18.0025 19.2158L19.4165 17.8018L15.0205 13.4058C16.1145 12.0075 16.709 10.2832 16.7095 8.50781C16.7095 4.09681 13.1205 0.507812 8.70947 0.507812C4.29847 0.507812 0.709473 4.09681 0.709473 8.50781C0.709473 12.9188 4.29847 16.5078 8.70947 16.5078ZM8.70947 2.50781C12.0185 2.50781 14.7095 5.19881 14.7095 8.50781C14.7095 11.8168 12.0185 14.5078 8.70947 14.5078C5.40047 14.5078 2.70947 11.8168 2.70947 8.50781C2.70947 5.19881 5.40047 2.50781 8.70947 2.50781Z" fill="white"/>
</svg>