<svg width="15" height="14" viewBox="0 0 15 14" fill="none" xmlns="http://www.w3.org/2000/svg">
<g id="bi:twitter" clip-path="url(#clip0_1224_8824)">
<g id="Group">
<path id="Vector" d="M4.95762 13.0886C9.96788 13.0886 12.7087 8.93716 12.7087 5.34336C12.7087 5.22719 12.7087 5.10936 12.7037 4.99319C13.2373 4.60691 13.6978 4.12867 14.0637 3.58089C13.5653 3.80066 13.0371 3.9455 12.4962 4.01072C13.0659 3.6702 13.4926 3.13444 13.6969 2.50299C13.1617 2.82008 12.5759 3.04267 11.9652 3.16102C11.5546 2.72374 11.0113 2.43405 10.4193 2.33684C9.82745 2.23962 9.22001 2.34029 8.69111 2.62326C8.16222 2.90623 7.7414 3.35571 7.49382 3.90207C7.24625 4.44842 7.18575 5.06117 7.32168 5.6454C6.2386 5.59109 5.17902 5.30972 4.21168 4.81955C3.24433 4.32937 2.39083 3.64133 1.70651 2.80006C1.35912 3.40006 1.2531 4.1098 1.40999 4.78513C1.56688 5.46047 1.97491 6.05077 2.55124 6.43619C2.11937 6.42151 1.69699 6.30554 1.31817 6.09763V6.13497C1.31892 6.76352 1.53666 7.37253 1.9346 7.85907C2.33254 8.34561 2.88626 8.67982 3.50217 8.80523C3.26839 8.86963 3.0269 8.90174 2.78441 8.90065C2.61346 8.90117 2.44285 8.88533 2.27492 8.85336C2.449 9.39442 2.78795 9.86749 3.24431 10.2063C3.70068 10.5451 4.25158 10.7327 4.81988 10.7428C3.85446 11.501 2.66193 11.9123 1.43434 11.9103C1.21804 11.9112 1.00188 11.8987 0.787109 11.873C2.03305 12.6673 3.48002 13.089 4.95762 13.0886Z" fill="white"/>
</g>
</g>
<defs>
<clipPath id="clip0_1224_8824">
<rect width="13.2766" height="13.2766" fill="white" transform="translate(0.788086 0.636719)"/>
</clipPath>
</defs>
</svg>
